<?xml version="1.0" encoding="UTF-8"?>
<svg width="700pt" height="700pt" version="1.1" viewBox="0 0 700 700" xmlns="http://www.w3.org/2000/svg">
 <path d="m160.78 128.35c-3.7188-0.003906-7.2852 1.4727-9.9141 4.1055-2.6289 2.6289-4.1016 6.1992-4.0977 9.918v275.27c0.019531 7.7227 6.2891 13.973 14.012 13.969h378.45c7.7266 0.007812 14.004-6.2422 14.02-13.969v-243.24c0.003906-3.7188-1.4727-7.2852-4.1016-9.9141-2.6328-2.6289-6.1992-4.1016-9.918-4.0977h-214.58l-36.543-28.984c-2.4688-1.9727-5.5273-3.0508-8.6836-3.0625zm13.969 28.031h99.793l36.496 28.977c2.4688 1.9688 5.5273 3.0469 8.6875 3.0625h205.49v215.2h-350.47z"/>
</svg>
